<svg width="38" height="21" viewBox="0 0 38 21" fill="none" xmlns="http://www.w3.org/2000/svg">
<path d="M19 4.99999C17.4997 4 17.4997 2 18.9997 1C20.4997 2 20.5003 4 19 4.99999Z" fill="#F25D5D"/>
<path d="M19.0003 16C17.5 17 17.5 19 19 20C20.5 19 20.5006 17 19.0003 16Z" fill="#F25D5D"/>
<path d="M19 4.99999C4.50024 -3 0.499996 6.9999 2.50074 9.99988L1 9.99993L1.00007 10.9999L2.50081 11C0.500065 14 4.50052 24 19.0003 16C33.5 24 37.5007 14 35.5 11L37.0002 10.9999L37.0002 9.99983L35.5 10C37.5007 7.00002 33.4998 -3 19 4.99999Z" fill="#F25D5D"/>
<path d="M19 4.99999C4.50024 -3 0.499996 6.9999 2.50074 9.99988L1 9.99993M19 4.99999C17.4997 4 17.4997 2 18.9997 1C20.4997 2 20.5003 4 19 4.99999ZM19 4.99999C33.4998 -3 37.5019 6.9999 35.5011 9.99988L37.0002 9.99983M19.0003 16C4.50052 24 0.500065 14 2.50081 11L1.00007 10.9999M19.0003 16C17.5 17 17.5 19 19 20C20.5 19 20.5006 17 19.0003 16ZM19.0003 16C33.5 24 37.502 14 35.5012 11L37.0002 10.9999" stroke="#29334E" stroke-width="0.5" stroke-linecap="round"/>
</svg>
