<svg width="30" height="30" viewBox="0 0 30 30" fill="none" xmlns="http://www.w3.org/2000/svg">
<path d="M12.2313 2.25704C12.8978 -0.693665 17.1022 -0.693665 17.7687 2.25704V2.25704C18.2006 4.1694 20.3952 5.07841 22.0529 4.03162V4.03162C24.6106 2.41645 27.5835 5.38935 25.9684 7.94712V7.94712C24.9216 9.60481 25.8306 11.7994 27.743 12.2313V12.2313C30.6937 12.8978 30.6937 17.1022 27.743 17.7687V17.7687C25.8306 18.2006 24.9216 20.3952 25.9684 22.0529V22.0529C27.5835 24.6106 24.6106 27.5835 22.0529 25.9684V25.9684C20.3952 24.9216 18.2006 25.8306 17.7687 27.743V27.743C17.1022 30.6937 12.8978 30.6937 12.2313 27.743V27.743C11.7994 25.8306 9.60481 24.9216 7.94712 25.9684V25.9684C5.38935 27.5835 2.41645 24.6106 4.03162 22.0529V22.0529C5.07841 20.3952 4.1694 18.2006 2.25704 17.7687V17.7687C-0.693665 17.1022 -0.693665 12.8978 2.25704 12.2313V12.2313C4.1694 11.7994 5.07841 9.60481 4.03162 7.94712V7.94712C2.41645 5.38935 5.38935 2.41645 7.94712 4.03162V4.03162C9.60481 5.07841 11.7994 4.1694 12.2313 2.25704V2.25704Z" fill="#89F71B"/>
</svg>
