<svg width="100" height="100" viewBox="0 0 100 100" fill="none" xmlns="http://www.w3.org/2000/svg">
<circle cx="50" cy="50" r="47.5" stroke="#F7E43C" stroke-width="5"/>
<path d="M59.2632 36.2942C62.6316 39.6627 64.3158 39.949 66 40.5047V42.1889C61.2479 43.9709 50.6296 44.496 42.4211 43.7639M59.2632 36.2942C57.5432 34.5741 50.7487 34.0252 45.7895 34.6473M59.2632 36.2942C58.4569 35.4878 56.5353 34.9389 54.2105 34.6473M42.4211 43.7639C38.9927 43.4582 35.9847 42.9332 34 42.1889V40.5047C35.6842 39.9433 37.3682 39.6627 40.7368 36.2942C41.5432 35.4879 43.4647 34.9389 45.7895 34.6473M42.4211 43.7639C41.7525 45.1878 41.6147 47.6044 42.0077 49.3827M57.5789 43.7639C58.4211 45.5574 58.4211 48.9259 57.5789 50.6101C54.2105 52.2943 45.7895 52.2943 42.4211 50.6101C42.2475 50.263 42.1097 49.8444 42.0077 49.3827M42.0077 49.3827C37.9983 49.3827 35.1546 53.6561 43.2632 55.1526M57.9923 49.3827C62.8527 49.3827 66 55.6627 50 55.6627C47.1986 55.6627 44.9842 55.4702 43.2632 55.1526M43.2632 55.1526C41.8596 55.884 40.1737 58.1916 39.0526 59.8732C37.3684 62.3995 37.4573 73.5247 38.2105 75.0311C39.0526 76.7153 41.8822 76.6477 42.4211 75.0311C43.2632 72.5048 44.7789 63.2416 47.4737 63.2416C50.1684 63.2416 50.2807 63.2416 50 63.2416H52.5263C55.2211 63.2416 56.7368 72.5048 57.5789 75.0311C58.1178 76.6477 60.9474 76.7153 61.7895 75.0311C62.5427 73.5247 62.6316 62.3995 60.9474 59.8732C59.8263 58.1916 58.1404 55.884 56.7368 55.1526M45.7895 34.6473C44.1053 33.7679 44.1616 32.8695 44.9474 32.0837C45.7331 31.298 49.1579 30.3996 49.1579 25.3469C49.1579 23.4428 50.8421 23.6626 50.8421 25.3469C50.8421 30.3996 54.2669 31.298 55.0526 32.0837C55.8384 32.8695 55.8947 33.7679 54.2105 34.6473M45.7895 34.6473C48.4239 34.3168 51.5761 34.3168 54.2105 34.6473M48.3158 48.9259C48.3158 47.2416 48.6526 46.3995 50 46.3995C51.3474 46.3995 51.6842 47.2416 51.6842 48.9259C50.8421 49.768 49.1579 49.768 48.3158 48.9259Z" stroke="#F7E43C" stroke-width="2" stroke-linecap="round" stroke-linejoin="round"/>
</svg>
