<svg width="114" height="114" viewBox="0 0 114 114" fill="none" xmlns="http://www.w3.org/2000/svg">
<g filter="url(#filter0_d_148_5)">
<circle cx="57" cy="57" r="47.5" stroke="#F7E43C" stroke-width="5" shape-rendering="crispEdges"/>
</g>
<g filter="url(#filter1_d_148_5)">
<path d="M66.2632 43.2942C69.6316 46.6627 71.3158 46.949 73 47.5047V49.1889C68.2479 50.9709 57.6296 51.496 49.4211 50.7639M66.2632 43.2942C64.5432 41.5741 57.7487 41.0252 52.7895 41.6473M66.2632 43.2942C65.4569 42.4878 63.5353 41.9389 61.2105 41.6473M49.4211 50.7639C45.9927 50.4582 42.9847 49.9332 41 49.1889V47.5047C42.6842 46.9433 44.3682 46.6627 47.7368 43.2942C48.5432 42.4879 50.4647 41.9389 52.7895 41.6473M49.4211 50.7639C48.7525 52.1878 48.6147 54.6044 49.0077 56.3827M64.5789 50.7639C65.4211 52.5574 65.4211 55.9259 64.5789 57.6101C61.2105 59.2943 52.7895 59.2943 49.4211 57.6101C49.2475 57.263 49.1097 56.8444 49.0077 56.3827M49.0077 56.3827C44.9983 56.3827 42.1546 60.6561 50.2632 62.1526M64.9923 56.3827C69.8527 56.3827 73 62.6627 57 62.6627C54.1986 62.6627 51.9842 62.4702 50.2632 62.1526M50.2632 62.1526C48.8596 62.884 47.1737 65.1916 46.0526 66.8732C44.3684 69.3995 44.4573 80.5247 45.2105 82.0311C46.0526 83.7153 48.8822 83.6477 49.4211 82.0311C50.2632 79.5048 51.7789 70.2416 54.4737 70.2416C57.1684 70.2416 57.2807 70.2416 57 70.2416H59.5263C62.2211 70.2416 63.7368 79.5048 64.5789 82.0311C65.1178 83.6477 67.9474 83.7153 68.7895 82.0311C69.5427 80.5247 69.6316 69.3995 67.9474 66.8732C66.8263 65.1916 65.1404 62.884 63.7368 62.1526M52.7895 41.6473C51.1053 40.7679 51.1616 39.8695 51.9474 39.0837C52.7331 38.298 56.1579 37.3996 56.1579 32.3469C56.1579 30.4428 57.8421 30.6626 57.8421 32.3469C57.8421 37.3996 61.2669 38.298 62.0526 39.0837C62.8384 39.8695 62.8947 40.7679 61.2105 41.6473M52.7895 41.6473C55.4239 41.3168 58.5761 41.3168 61.2105 41.6473M55.3158 55.9259C55.3158 54.2416 55.6526 53.3995 57 53.3995C58.3474 53.3995 58.6842 54.2416 58.6842 55.9259C57.8421 56.768 56.1579 56.768 55.3158 55.9259Z" stroke="#F7E43C" stroke-width="2" stroke-linecap="round" stroke-linejoin="round" shape-rendering="crispEdges"/>
</g>
<defs>
<filter id="filter0_d_148_5" x="0" y="0" width="114" height="114" filterUnits="userSpaceOnUse" color-interpolation-filters="sRGB">
<feFlood flood-opacity="0" result="BackgroundImageFix"/>
<feColorMatrix in="SourceAlpha" type="matrix" values="0 0 0 0 0 0 0 0 0 0 0 0 0 0 0 0 0 0 127 0" result="hardAlpha"/>
<feOffset/>
<feGaussianBlur stdDeviation="3.5"/>
<feComposite in2="hardAlpha" operator="out"/>
<feColorMatrix type="matrix" values="0 0 0 0 0.966667 0 0 0 0 0.893333 0 0 0 0 0.233333 0 0 0 1 0"/>
<feBlend mode="normal" in2="BackgroundImageFix" result="effect1_dropShadow_148_5"/>
<feBlend mode="normal" in="SourceGraphic" in2="effect1_dropShadow_148_5" result="shape"/>
</filter>
<filter id="filter1_d_148_5" x="35" y="24.9999" width="44" height="64.2691" filterUnits="userSpaceOnUse" color-interpolation-filters="sRGB">
<feFlood flood-opacity="0" result="BackgroundImageFix"/>
<feColorMatrix in="SourceAlpha" type="matrix" values="0 0 0 0 0 0 0 0 0 0 0 0 0 0 0 0 0 0 127 0" result="hardAlpha"/>
<feOffset/>
<feGaussianBlur stdDeviation="2.5"/>
<feComposite in2="hardAlpha" operator="out"/>
<feColorMatrix type="matrix" values="0 0 0 0 0.966667 0 0 0 0 0.893333 0 0 0 0 0.233333 0 0 0 1 0"/>
<feBlend mode="normal" in2="BackgroundImageFix" result="effect1_dropShadow_148_5"/>
<feBlend mode="normal" in="SourceGraphic" in2="effect1_dropShadow_148_5" result="shape"/>
</filter>
</defs>
</svg>
