<svg width="68" height="109" viewBox="0 0 68 109" fill="none" xmlns="http://www.w3.org/2000/svg">
<path d="M52.5268 26.5886C59.2636 33.3256 62.6321 33.8983 66.0005 35.0096V38.3781C56.4963 41.9421 35.2597 42.9922 18.8426 41.5281M52.5268 26.5886C49.0868 23.1485 35.4979 22.0507 25.5794 23.2948M52.5268 26.5886C50.9142 24.9759 47.0712 23.878 42.4215 23.2948M18.8426 41.5281C11.9859 40.9166 5.96995 39.8666 2.00049 38.3781V35.0096C5.36891 33.8868 8.73695 33.3256 15.4742 26.5886C17.0868 24.976 20.9298 23.8781 25.5794 23.2948M18.8426 41.5281C17.5055 44.3759 17.2299 49.209 18.0159 52.7657M49.1584 41.5281C50.8426 45.1151 50.8426 51.8519 49.1584 55.2204C42.4215 58.5888 25.5794 58.5888 18.8426 55.2204C18.4955 54.5262 18.2199 53.689 18.0159 52.7657M18.0159 52.7657C9.99709 52.7657 4.30973 61.3125 20.5268 64.3054M49.9851 52.7657C59.7059 52.7657 66.0005 65.3256 34.0005 65.3256C28.3977 65.3256 23.9689 64.9406 20.5268 64.3054M20.5268 64.3054C17.7198 65.7683 14.3479 70.3834 12.1058 73.7467C8.73733 78.7993 8.91514 101.05 10.4215 104.062C12.1058 107.431 17.7649 107.296 18.8426 104.062C20.5268 99.0098 23.5584 80.4835 28.9479 80.4835C34.3373 80.4835 34.5619 80.4835 34.0005 80.4835H39.0531C44.4426 80.4835 47.4742 99.0098 49.1584 104.062C50.2361 107.296 55.8952 107.431 57.5794 104.062C59.0858 101.05 59.2636 78.7993 55.8952 73.7467C53.6531 70.3834 50.2812 65.7683 47.4742 64.3054M25.5794 23.2948C22.211 21.5361 22.3237 19.7392 23.8952 18.1677C25.4667 16.5962 32.3163 14.7994 32.3163 4.69405C32.3163 0.885808 35.6847 1.32553 35.6847 4.69405C35.6847 14.7994 42.5343 16.5962 44.1058 18.1677C45.6773 19.7392 45.79 21.5361 42.4215 23.2948M25.5794 23.2948C30.8482 22.6339 37.1527 22.6339 42.4215 23.2948M30.6321 51.8519C30.6321 48.4835 31.3058 46.7993 34.0005 46.7993C36.6952 46.7993 37.3689 48.4835 37.3689 51.8519C35.6847 53.5362 32.3163 53.5362 30.6321 51.8519Z" stroke="#F7E43C" stroke-width="3" stroke-linecap="round" stroke-linejoin="round"/>
</svg>
