<svg width="100" height="100" viewBox="0 0 100 100" fill="none" xmlns="http://www.w3.org/2000/svg">
<path d="M71.4844 33.2344V34.0156L73.2422 34.6016L77.3438 35.1875L81.0547 35.5781L82.2266 35.1875H87.5V36.1641C86.849 36.6849 85.6771 37.2057 83.9844 37.7266L80.6641 38.3125C78.9714 38.0521 77.0833 37.987 75 38.1172C74.8698 37.987 74.349 37.8568 73.4375 37.7266C72.526 37.5964 71.9401 37.5312 71.6797 37.5312C71.4193 37.5312 70.9961 37.2383 70.4102 36.6523C69.8242 36.0664 69.4661 35.6432 69.3359 35.3828C69.2057 35.1224 69.1406 34.7969 69.1406 34.4062C69.1406 34.0156 69.2383 33.7227 69.4336 33.5273C69.6289 33.332 70.3125 33.2344 71.4844 33.2344ZM63.8672 29.3281L62.8906 28.3516L62.5 24.8359V17.4141C62.7604 16.8932 63.0534 16.4701 63.3789 16.1445C63.7044 15.819 64.2578 15.6562 65.0391 15.6562L66.2109 17.4141L67.3828 20.5391L68.3594 23.6641L69.1406 27.7656L68.3594 31.0859L67.5781 33.0391C67.9688 33.1693 68.3594 33.4948 68.75 34.0156C68.099 35.3177 67.7083 36.2292 67.5781 36.75L64.4531 35.7734C63.6719 33.4297 63.4766 31.2812 63.8672 29.3281ZM79.8828 13.7031C80.4036 13.4427 80.9245 13.3125 81.4453 13.3125C81.9661 13.3125 82.487 13.4427 83.0078 13.7031C83.5286 13.9635 84.0169 14.3216 84.4727 14.7773C84.9284 15.2331 85.1562 15.8516 85.1562 16.6328L83.7891 17.6094L80.6641 19.3672C78.1901 20.4089 76.5951 21.0273 75.8789 21.2227C75.1628 21.418 74.6419 21.4831 74.3164 21.418C73.9909 21.3529 73.4375 20.9297 72.6562 20.1484C71.875 19.3672 71.4193 18.5859 71.2891 17.8047C71.1589 17.0234 71.0938 16.3073 71.0938 15.6562C71.0938 15.0052 71.3867 14.3867 71.9727 13.8008C72.5586 13.2148 72.9818 12.9219 73.2422 12.9219C73.5026 12.9219 73.8607 12.7591 74.3164 12.4336C74.7721 12.1081 75.9766 11.8802 77.9297 11.75L79.8828 13.7031ZM71.0938 87.9219V86.3594H75.9766C77.2786 86.099 78.125 85.9036 78.5156 85.7734C78.9062 85.6432 79.2969 85.3828 79.6875 84.9922C79.4271 84.4714 78.776 83.9505 77.7344 83.4297L73.2422 82.6484C71.4193 82.2578 70.4102 81.9648 70.2148 81.7695C70.0195 81.5742 69.8568 81.3464 69.7266 81.0859C69.5964 80.8255 69.7266 79.7188 70.1172 77.7656L69.5312 74.4453L68.5547 73.8594L63.6719 68.9766C63.6719 68.4557 63.7695 68.0977 63.9648 67.9023C64.1602 67.707 65.1042 67.4141 66.7969 67.0234C68.4896 66.6328 69.4336 66.3398 69.6289 66.1445C69.8242 65.9492 69.987 65.6562 70.1172 65.2656C70.2474 64.875 70.3776 64.4193 70.5078 63.8984C70.638 63.3776 70.931 62.8893 71.3867 62.4336C71.8424 61.9779 72.2005 61.6849 72.4609 61.5547C72.7214 61.4245 73.0469 61.3594 73.4375 61.3594C73.8281 61.3594 74.1211 61.457 74.3164 61.6523C74.5117 61.8477 74.6745 62.3034 74.8047 63.0195C74.9349 63.7357 74.9349 64.5169 74.8047 65.3633C74.6745 66.2096 74.4141 66.8281 74.0234 67.2188L75.3906 68.5859C77.3438 68.0651 78.9388 67.9349 80.1758 68.1953C81.4128 68.4557 82.2917 68.651 82.8125 68.7812V70.7344C82.4219 70.7344 81.6732 71.0273 80.5664 71.6133C79.4596 72.1992 78.2878 72.8177 77.0508 73.4688C75.8138 74.1198 74.8047 74.543 74.0234 74.7383C73.2422 74.9336 72.6888 75.194 72.3633 75.5195C72.0378 75.8451 71.7448 76.5938 71.4844 77.7656C72.2656 77.6354 73.6979 77.3099 75.7812 76.7891H79.2969L82.6172 77.7656C84.5703 79.9792 85.6771 81.6068 85.9375 82.6484C86.1979 83.6901 86.1979 84.6016 85.9375 85.3828L83.0078 87.7266L80.6641 88.7031L74.2188 88.5078C74.0885 88.3776 73.6979 88.2474 73.0469 88.1172C72.3958 87.987 71.7448 87.9219 71.0938 87.9219Z" fill="white"/>
<path d="M19.4824 21.3691C20.4915 21.3691 21.2402 21.6296 21.7285 22.1504C22.2493 22.6387 23.0143 23.599 24.0234 25.0312C24.2188 24.8359 24.7233 24.1198 25.5371 22.8828L30.3711 13.166C32.194 11.3431 33.6263 10.4316 34.668 10.4316C34.668 12.6777 34.4564 14.6146 34.0332 16.2422L32.2266 21.6621C30.2083 26.1217 28.9876 28.5632 28.5645 28.9863C29.1829 29.5723 29.6875 29.9792 30.0781 30.207C30.5013 30.4023 31.1035 30.5 31.8848 30.5C32.6986 30.5 33.3659 30.7604 33.8867 31.2812C34.4076 31.7695 34.668 32.3066 34.668 32.8926H25.2441C22.4121 34.7155 20.4753 35.8874 19.4336 36.4082C18.4245 36.8965 17.0247 37.1406 15.2344 37.1406C15.2344 36.9453 15.3809 36.6035 15.6738 36.1152C15.9668 35.5944 16.4062 35.1387 16.9922 34.748C17.6107 34.3249 19.043 33.0065 21.2891 30.793L20.9961 28.3516L19.7754 22.5898L19.4824 21.3691ZM15.625 75.4219H18.9453C19.987 75.6823 20.7031 75.9427 21.0938 76.2031C21.6146 74.5104 21.875 73.5339 21.875 73.2734C21.875 73.013 22.2656 72.4922 23.0469 71.7109C22.6562 71.5807 22.3307 71.3854 22.0703 71.125C21.2891 71.3854 20.7682 71.5156 20.5078 71.5156C20.2474 71.5156 19.987 71.3854 19.7266 71.125C19.4661 70.8646 19.0755 70.7344 18.5547 70.7344L16.0156 68.1953C15.4948 67.4141 15.2344 66.6979 15.2344 66.0469H14.4531V65.2656C14.8438 65.2656 15.1693 65.168 15.4297 64.9727C15.6901 64.7773 15.9505 64.5169 16.2109 64.1914C16.4714 63.8659 16.9271 63.6055 17.5781 63.4102C18.2292 63.2148 19.4661 62.7917 21.2891 62.1406H24.8047C25.3255 62.401 25.7161 62.6615 25.9766 62.9219L29.2969 62.5312C30.9896 62.7917 31.9661 63.0521 32.2266 63.3125C32.487 63.5729 33.0729 63.7031 33.9844 63.7031C33.9844 64.0938 33.9193 64.4844 33.7891 64.875C33.6589 65.2656 33.3659 65.6888 32.9102 66.1445C32.4544 66.6003 32.0312 66.9583 31.6406 67.2188C31.25 67.4792 30.9245 67.6094 30.6641 67.6094C30.4036 67.6094 29.6549 67.9349 28.418 68.5859C27.181 69.237 26.2695 69.6927 25.6836 69.9531C25.0977 70.2135 24.5443 70.3438 24.0234 70.3438L23.0469 71.5156L23.8281 76.9844C26.1719 76.724 27.7669 76.4635 28.6133 76.2031C29.4596 75.9427 30.013 75.6823 30.2734 75.4219H33.9844V76.9844C33.5938 76.9844 33.138 77.1146 32.6172 77.375C32.0964 77.6354 31.7057 77.8958 31.4453 78.1562C31.1849 78.4167 30.9245 78.5469 30.6641 78.5469C30.4036 78.5469 30.1432 78.6771 29.8828 78.9375C29.6224 79.1979 29.362 79.3281 29.1016 79.3281C28.8411 79.3281 28.3854 79.5234 27.7344 79.9141C27.0833 80.3047 25.7812 80.8906 23.8281 81.6719V83.8203C24.7396 84.6016 26.1068 85.1875 27.9297 85.5781H34.9609C35.3516 85.9688 35.5469 86.3594 35.5469 86.75C34.2448 86.8802 32.7474 87.1406 31.0547 87.5312L24.2188 87.7266C24.0885 87.5964 23.8932 87.4661 23.6328 87.3359C23.3724 87.2057 22.9818 87.1406 22.4609 87.1406C21.5495 85.9688 20.9635 85.1224 20.7031 84.6016C20.4427 84.0807 20.3125 83.4297 20.3125 82.6484C20.3125 81.8672 20.0521 81.0859 19.5312 80.3047L16.0156 76.7891C15.7552 76.2682 15.625 75.8125 15.625 75.4219Z" fill="white"/>
</svg>
