<svg width="11" height="11" viewBox="0 0 11 11" fill="none" xmlns="http://www.w3.org/2000/svg">
<path d="M6.951 2.13653C6.32668 1.43899 5.4194 1 4.40959 1C2.52653 1 1 2.52653 1 4.40959C1 5.99833 2.08661 7.33327 3.5572 7.71177C3.82964 7.78189 4.11526 7.81919 4.40959 7.81919C4.70393 7.81919 4.98955 7.78189 5.26199 7.71177C6.73257 7.33327 7.81919 5.99833 7.81919 4.40959C7.81919 4.01109 7.75082 3.62855 7.62518 3.27306" stroke="white" stroke-width="0.6" stroke-linecap="round"/>
<path d="M6.98242 8.18805L8.76086 9.96648C9.47223 10.6779 10.6777 9.47238 9.96633 8.76101L8.1879 6.98258" stroke="white" stroke-width="0.6" stroke-linecap="round"/>
<path d="M3.50011 6.5L4.63664 5.36346M2.43173 5.56827L3 5" stroke="white" stroke-width="0.6" stroke-linecap="round" stroke-linejoin="round"/>
</svg>
